
<svg id="Group_1112" data-name="Group 1112" xmlns="http://www.w3.org/2000/svg" xmlns:xlink="http://www.w3.org/1999/xlink" width="361.791" height="191.187" viewBox="0 0 361.791 191.187">
  <defs>
    <style>
      .cls-1 {
        fill: #6366f1;
      }

      .cls-2 {
        clip-path: url(#clip-path);
      }
    </style>
    <clipPath id="clip-path">
      <rect id="Rectangle_368" data-name="Rectangle 368" class="cls-1" width="361.791" height="191.187"/>
    </clipPath>
  </defs>
  <g id="Group_1111" data-name="Group 1111" class="cls-2">
    <path id="Path_50910" data-name="Path 50910" class="cls-1" d="M357.528,113.667c-.131.381.393.851.393.981V145.4l5.125-3.685c17.957-9.355,38.162-2.377,39.568,19.561.981,15.177-.741,31.336,0,46.622l-.415,2.181H386.313a2.18,2.18,0,0,1-1-1.744c-.73-13.51,1.091-28.153,0-41.531-.479-6.215-3.173-12.234-10.031-13.084a13.989,13.989,0,0,0-16.355,10.238c-.2.665-1.091,4.034-1.091,4.416V209.5l-1.821.85c-4.253-1.014-10.009.48-14.066-.261a1.265,1.265,0,0,1-.981-.589V114.256l.589-.589Z" transform="translate(-62.59 -20.866)"/>
    <path id="Path_50911" data-name="Path 50911" class="cls-1" d="M197.94,145.053a70.752,70.752,0,0,1,16.214,0c1.21.774.294,7.349,1.243,9.039a17.446,17.446,0,0,1,16.454-10.205c1.09,0,5.31-.251,5.31,1.385v15.646a2.322,2.322,0,0,1-1.385.981c-11.917-2.1-18.885,1.963-19.8,14.283-.872,11.732.993,24.773,0,36.45a6.135,6.135,0,0,1-.611,2.529c-1.57,1.254-3.162.371-4.688.371h-6.313c-2.1,0-4.525,1.211-6.455-.567Z" transform="translate(-36.329 -26.41)"/>
    <path id="Path_50912" data-name="Path 50912" class="cls-1" d="M256.223,166.463a12.441,12.441,0,0,1-.414-2.181,68.7,68.7,0,0,1,.4-10.6c.425-3.587,6.771-6.683,9.813-7.807,11.416-4.176,31.249-4.361,40.2,5.037a27.637,27.637,0,0,1,6.847,14.916v48.956a20.008,20.008,0,0,1-8.843.567,15.863,15.863,0,0,1-7.142-.077,4.056,4.056,0,0,1-.49-.883v-7.24c-.687-.175-.785.283-1.178.589-4.907,3.761-5.451,6.782-12.539,8.625-14.109,3.631-30.922-1.614-32.154-18.024-2.071-27.52,25.885-24.936,45.064-27.64-.24-7.817-1.788-12.844-10.413-13.629a15.2,15.2,0,0,0-16.813,9.344Zm39.252,17.228c-5.179.567-10.641.763-15.766,1.679-6.695,1.2-12.3,3.434-11.3,11.448.621,4.994,6.8,6.793,11.143,6.4a17.447,17.447,0,0,0,16.008-18.774c-.02-.256-.047-.511-.078-.765" transform="translate(-46.005 -26.276)"/>
    <path id="Path_50913" data-name="Path 50913" class="cls-1" d="M163.24,150.864c18.983,16.857,14.829,56.971-11.6,64.647-31.434,9.137-51.508-18.231-44.115-47.593a34.607,34.607,0,0,1,55.717-17.064M139.808,157.4c-23.4.676-20.608,52.337,5.092,45.064,17.827-5.081,16.976-45.7-5.092-45.064" transform="translate(-19.456 -26.182)"/>
    <path id="Path_50914" data-name="Path 50914" class="cls-1" d="M83.058,214.8a2.27,2.27,0,0,1-1.515.763,93.87,93.87,0,0,1-10.467-.185c-1.527,0-3.119.872-4.7-.371a11.612,11.612,0,0,1-.6-2.922c-1-13.248,1.091-27.913,0-41.15a11.851,11.851,0,0,0-11.33-12.351c-.322-.015-.646-.015-.968,0-11.012-.077-14.534,9.584-15.1,18.993-.719,12.114.731,24.849-.174,37.072a2.4,2.4,0,0,1-1.549.992c-2.605.218-6.542-.273-9.442-.229-2.083,0-4.449,1.254-6.259-.763l-.185-69.095a1.332,1.332,0,0,1,.818-.753,89.627,89.627,0,0,1,13.848-.305c.85.077,2.529.24,2.529,1.385v6.073c1.613-.4,2.649-2.3,3.914-3.337a25.8,25.8,0,0,1,39.405,8.822,37.124,37.124,0,0,1,1.777,7.239Z" transform="translate(-3.812 -26.231)"/>
    <path id="Path_50915" data-name="Path 50915" class="cls-1" d="M32.836,75.7l7.031-9.848c3.716-4.41,9.681-12.527,16.36-9.017C64.764,61.323,55.415,78.994,54,86c-.558,2.738-1.076,6.513,2.747,3.756a53.679,53.679,0,0,0,8.215-10.18,57.27,57.27,0,0,0,1.564-6.8A36.043,36.043,0,0,1,82.777,51.906c5.691-2.416,12.928-.714,13.6,6.248,1.076,11.158-12.429,21.6-22.09,24.448-.2,5.1,2.181,7.823,7.383,6.327,6.845-1.955,17.377-15.216,21.279-21.191,2.347-3.6,5.027-10.014,7.481-12.918,2.3-2.738,7.423-1.956,7.012,2.308-2.376,6.327-5.984,12.058-7.823,18.58-.655,2.308-2.014,6.485-.919,8.606.147.293-.049.558.567.42,2.758-.381,8.733-8.479,10.493-10.923A131.788,131.788,0,0,0,130.187,56.15a3.823,3.823,0,0,1,6.542,1.829,45,45,0,0,1-1.956,11.793c-1.369,5.917-3.393,11.686-4.586,17.6.332.332,7.285-2.377,8.713,1.134,2.542,6.22-8.019,5.193-11.227,7.227a168.1,168.1,0,0,1-11.334,29.435c-4.538,8.312-11.628,18.482-22.414,17.378A9.146,9.146,0,0,1,85.75,135c-2.386-18.268,20.194-35.811,34.1-44.094l2.992-9.877c-3.686,3.98-7.569,9.633-13.358,10.552-5.946.978-9.28-2.933-9.545-8.537-7.275,8.488-19.852,20.614-30.98,10.835l-3.013-4.508c-3.119,6.015-15.186,14.6-20.408,6.523-4.381-6.767,4.89-23.1,5.349-30.6-.851-.783-3.071,2.141-3.667,2.845A161.023,161.023,0,0,0,33.442,88.852a75.029,75.029,0,0,1-8.86,14.551,4.185,4.185,0,0,1-6.4-2.875,58.982,58.982,0,0,1,2.425-13.133c1.477-6.386,3.394-12.713,4.89-19.049A37.017,37.017,0,0,1,4.349,75.62c-3.256-.548-6.063-4.459-3.09-6.944,1.643-1.368,2.621-.723,4.274-1.035A51.4,51.4,0,0,0,29.169,55.828c5.868-16.37,9.779-37.161,21.885-50.343C56.98-.93,67.61-3.374,69.811,7.441,73.722,26.559,51.181,49.324,37.54,60.17ZM41.2,46.616c.469.586,7.128-7.178,7.676-7.824A60.319,60.319,0,0,0,61.841,13.259c.244-1.848.87-6.415-2.22-5.251-2.542.978-6.846,8.665-8.176,11.227A138.729,138.729,0,0,0,41.207,46.616M74.974,74.7c5.095-1.33,14.444-9.632,13.691-15.226-.538-4.234-6.19,1.31-7.363,2.7A32.359,32.359,0,0,0,74.974,74.7m41.805,26.755c-.254-.244-2.142,1.4-2.493,1.682-6.846,5.428-19.763,17.456-21.172,26.315-.978,6.249,3.285,6.435,7.285,3.267,8.4-6.669,12.478-21.622,16.39-31.293" transform="translate(0 0)"/>
    <path id="Path_50916" data-name="Path 50916" class="cls-1" d="M207.334,12.12c8.117-1.408,3.745,11.735,2.513,15.559C206.6,37.7,201.554,47.726,197.554,57.525c-1.867,4.6-3.452,10.571-5.574,14.825a4.763,4.763,0,0,1-4.988,3.08c-5.672-.929-1.741-9.681-.577-12.986,4.352-12.41,9.779-24.78,14.307-37.161,1.144-3.129,2.1-7.764,3.5-10.542a4.734,4.734,0,0,1,3.09-2.591" transform="translate(-33.777 -2.206)"/>
    <path id="Path_50917" data-name="Path 50917" class="cls-1" d="M181.573,100.161a5.876,5.876,0,1,1,3,11.363c-8.42,3.178-11.118-10.043-3-11.363" transform="translate(-32.435 -18.35)"/>
    <path id="Path_50918" data-name="Path 50918" class="cls-1" d="M438.731,122.175a8.441,8.441,0,1,1-8.44-8.441,8.441,8.441,0,0,1,8.44,8.441" transform="translate(-77.438 -20.878)"/>
    <path id="Path_50919" data-name="Path 50919" class="cls-1" d="M412.054,122.175a8.441,8.441,0,1,1-8.441-8.441,8.441,8.441,0,0,1,8.441,8.441" transform="translate(-72.541 -20.878)"/>
    <path id="Path_50920" data-name="Path 50920" class="cls-1" d="M439.341,148.852a8.441,8.441,0,1,1-8.441-8.441,8.441,8.441,0,0,1,8.441,8.441" transform="translate(-77.55 -25.775)"/>
  </g>
</svg>
